<svg width="32" height="32" viewBox="0 0 32 32" fill="none" xmlns="http://www.w3.org/2000/svg">
<path d="M8 16L16 8L24 16L16 24L8 16Z" fill="white"/>
<path d="M29.39 14.527L17.474 2.609C17.0831 2.21879 16.5533 1.99963 16.001 1.99963C15.4487 1.99963 14.9189 2.21879 14.528 2.609L2.609 14.527C2.21879 14.9179 1.99963 15.4477 1.99963 16C1.99963 16.5523 2.21879 17.0821 2.609 17.473L14.527 29.391C14.9179 29.7812 15.4477 30.0004 16 30.0004C16.5523 30.0004 17.0821 29.7812 17.473 29.391L29.391 17.473C29.7812 17.0821 30.0004 16.5523 30.0004 16C30.0004 15.4477 29.7812 14.9179 29.391 14.527H29.39ZM16 28.036L3.965 16L16 3.964L28.036 16L16 28.036Z" fill="white"/>
</svg>
