<svg width="29" height="28" viewBox="0 0 29 28" fill="none" xmlns="http://www.w3.org/2000/svg">
<path d="M15.55 12.25C14.85 12.075 14.15 11.725 13.625 11.2C13.1 11.025 12.925 10.5 12.925 10.15C12.925 9.8 13.1 9.275 13.45 9.1C13.975 8.75 14.5 8.4 15.025 8.575C16.075 8.575 16.95 9.1 17.475 9.8L19.05 7.7C18.525 7.175 18 6.825 17.475 6.475C16.95 6.125 16.25 5.95 15.55 5.95V3.5H13.45V5.95C12.575 6.125 11.7 6.65 11 7.35C10.3 8.225 9.775 9.275 9.95 10.325C9.95 11.375 10.3 12.425 11 13.125C11.875 14 13.1 14.525 14.15 15.05C14.675 15.225 15.375 15.575 15.9 15.925C16.25 16.275 16.425 16.8 16.425 17.325C16.425 17.85 16.25 18.375 15.9 18.9C15.375 19.425 14.675 19.6 14.15 19.6C13.45 19.6 12.575 19.425 12.05 18.9C11.525 18.55 11 18.025 10.65 17.5L8.9 19.425C9.425 20.125 9.95 20.65 10.65 21.175C11.525 21.7 12.575 22.225 13.625 22.225V24.5H15.55V21.875C16.6 21.7 17.475 21.175 18.175 20.475C19.05 19.6 19.575 18.2 19.575 16.975C19.575 15.925 19.225 14.7 18.35 14C17.475 13.125 16.6 12.6 15.55 12.25ZM14.5 0C6.8 0 0.5 6.3 0.5 14C0.5 21.7 6.8 28 14.5 28C22.2 28 28.5 21.7 28.5 14C28.5 6.3 22.2 0 14.5 0ZM14.5 26.075C7.85 26.075 2.425 20.65 2.425 14C2.425 7.35 7.85 1.925 14.5 1.925C21.15 1.925 26.575 7.35 26.575 14C26.575 20.65 21.15 26.075 14.5 26.075Z" fill="white"/>
</svg>
