<svg width="65" height="57" viewBox="0 0 65 57" fill="none" xmlns="http://www.w3.org/2000/svg">
<path d="M64.35 0H0.65C0.2925 0 0 0.291477 0 0.647727V5.82955C0 6.1858 0.2925 6.47727 0.65 6.47727H64.35C64.7075 6.47727 65 6.1858 65 5.82955V0.647727C65 0.291477 64.7075 0 64.35 0ZM64.35 50.5227H0.65C0.2925 50.5227 0 50.8142 0 51.1705V56.3523C0 56.7085 0.2925 57 0.65 57H64.35C64.7075 57 65 56.7085 65 56.3523V51.1705C65 50.8142 64.7075 50.5227 64.35 50.5227ZM64.35 25.2614H0.65C0.2925 25.2614 0 25.5528 0 25.9091V31.0909C0 31.4472 0.2925 31.7386 0.65 31.7386H64.35C64.7075 31.7386 65 31.4472 65 31.0909V25.9091C65 25.5528 64.7075 25.2614 64.35 25.2614Z" fill="white"/>
</svg>
