<svg width="27" height="28" viewBox="0 0 27 28" fill="none" xmlns="http://www.w3.org/2000/svg">
<path d="M25.3433 22.5996C24.6985 21.0724 23.7629 19.6851 22.5884 18.5151C21.4175 17.3418 20.0305 16.4063 18.5039 15.7603C18.4903 15.7534 18.4766 15.75 18.4629 15.7432C20.5923 14.2051 21.9766 11.6997 21.9766 8.87305C21.9766 4.19043 18.1826 0.396484 13.5 0.396484C8.81741 0.396484 5.02346 4.19043 5.02346 8.87305C5.02346 11.6997 6.40774 14.2051 8.53713 15.7466C8.52346 15.7534 8.50979 15.7568 8.49612 15.7637C6.96487 16.4097 5.59085 17.3359 4.41165 18.5186C3.23829 19.6894 2.30277 21.0765 1.65676 22.603C1.02212 24.0975 0.679845 25.6999 0.648462 27.3232C0.64755 27.3597 0.653948 27.396 0.667281 27.43C0.680613 27.464 0.70061 27.4949 0.726092 27.521C0.751575 27.5471 0.782027 27.5679 0.815656 27.5821C0.849284 27.5962 0.885409 27.6035 0.921899 27.6035H2.97268C3.12307 27.6035 3.2427 27.4839 3.24612 27.3369C3.31448 24.6982 4.37405 22.2271 6.24709 20.354C8.18508 18.416 10.7588 17.3496 13.5 17.3496C16.2412 17.3496 18.815 18.416 20.753 20.354C22.626 22.2271 23.6856 24.6982 23.7539 27.3369C23.7573 27.4873 23.877 27.6035 24.0274 27.6035H26.0781C26.1146 27.6035 26.1508 27.5962 26.1844 27.5821C26.218 27.5679 26.2485 27.5471 26.274 27.521C26.2994 27.4949 26.3194 27.464 26.3328 27.43C26.3461 27.396 26.3525 27.3597 26.3516 27.3232C26.3174 25.6895 25.979 24.1001 25.3433 22.5996ZM13.5 14.752C11.9312 14.752 10.4546 14.1401 9.34377 13.0293C8.23293 11.9185 7.62112 10.4419 7.62112 8.87305C7.62112 7.3042 8.23293 5.82764 9.34377 4.7168C10.4546 3.60596 11.9312 2.99414 13.5 2.99414C15.0689 2.99414 16.5454 3.60596 17.6563 4.7168C18.7671 5.82764 19.3789 7.3042 19.3789 8.87305C19.3789 10.4419 18.7671 11.9185 17.6563 13.0293C16.5454 14.1401 15.0689 14.752 13.5 14.752Z" fill="white"/>
</svg>
